<?xml version="1.0" encoding="UTF-8" standalone="no"?>
<!DOCTYPE svg PUBLIC "-//W3C//DTD SVG 1.1//EN"
 "http://www.w3.org/Graphics/SVG/1.1/DTD/svg11.dtd">
<!-- Generated by graphviz version 9.0.0 (0)
 -->
<!-- Pages: 1 -->
<svg width="520pt" height="439pt"
 viewBox="0.00 0.00 519.72 438.82" xmlns="http://www.w3.org/2000/svg" xmlns:xlink="http://www.w3.org/1999/xlink">
<g id="graph0" class="graph" transform="scale(1 1) rotate(0) translate(4 434.82)">
<polygon fill="white" stroke="none" points="-4,4 -4,-434.82 515.72,-434.82 515.72,4 -4,4"/>
<g id="clust2" class="cluster">
<title>cluster446</title>
<path fill="none" stroke="black" d="M220,-8C220,-8 306,-8 306,-8 312,-8 318,-14 318,-20 318,-20 318,-304.82 318,-304.82 318,-310.82 312,-316.82 306,-316.82 306,-316.82 220,-316.82 220,-316.82 214,-316.82 208,-310.82 208,-304.82 208,-304.82 208,-20 208,-20 208,-14 214,-8 220,-8"/>
<text text-anchor="middle" x="299.88" y="-15.2" font-family="Times New Roman,serif" font-size="14.00">446</text>
</g>
<g id="clust1" class="cluster">
<title>cluster446 x 3</title>
<path fill="none" stroke="black" d="M20,-324.82C20,-324.82 100,-324.82 100,-324.82 106,-324.82 112,-330.82 112,-336.82 112,-336.82 112,-410.82 112,-410.82 112,-416.82 106,-422.82 100,-422.82 100,-422.82 20,-422.82 20,-422.82 14,-422.82 8,-416.82 8,-410.82 8,-410.82 8,-336.82 8,-336.82 8,-330.82 14,-324.82 20,-324.82"/>
<text text-anchor="middle" x="83.38" y="-332.02" font-family="Times New Roman,serif" font-size="14.00">446 x 3</text>
</g>
<!-- input -->
<g id="node1" class="node">
<title>input</title>
<path fill="lightgrey" stroke="black" d="M91.62,-414.82C91.62,-414.82 28.38,-414.82 28.38,-414.82 22.38,-414.82 16.38,-408.82 16.38,-402.82 16.38,-402.82 16.38,-369.32 16.38,-369.32 16.38,-363.32 22.38,-357.32 28.38,-357.32 28.38,-357.32 91.62,-357.32 91.62,-357.32 97.62,-357.32 103.62,-363.32 103.62,-369.32 103.62,-369.32 103.62,-402.82 103.62,-402.82 103.62,-408.82 97.62,-414.82 91.62,-414.82"/>
<text text-anchor="middle" x="60" y="-397.52" font-family="Times New Roman,serif" font-size="14.00">input</text>
<text text-anchor="middle" x="60" y="-381.02" font-family="Times New Roman,serif" font-size="14.00">~</text>
<text text-anchor="middle" x="60" y="-364.52" font-family="Times New Roman,serif" font-size="14.00">MutableData</text>
</g>
<!-- p -->
<g id="node2" class="node">
<title>p</title>
<polygon fill="none" stroke="black" points="308.12,-308.82 217.88,-308.82 217.88,-251.32 308.12,-251.32 308.12,-308.82"/>
<text text-anchor="middle" x="263" y="-291.52" font-family="Times New Roman,serif" font-size="14.00">p</text>
<text text-anchor="middle" x="263" y="-275.02" font-family="Times New Roman,serif" font-size="14.00">~</text>
<text text-anchor="middle" x="263" y="-258.52" font-family="Times New Roman,serif" font-size="14.00">Deterministic</text>
</g>
<!-- input&#45;&gt;p -->
<g id="edge3" class="edge">
<title>input&#45;&gt;p</title>
<path fill="none" stroke="black" d="M79.19,-356.96C88.26,-345.55 99.95,-333.12 113,-324.82 141.21,-306.87 177.03,-296.06 206.59,-289.68"/>
<polygon fill="black" stroke="black" points="206.99,-293.17 216.1,-287.75 205.6,-286.31 206.99,-293.17"/>
</g>
<!-- out -->
<g id="node4" class="node">
<title>out</title>
<ellipse fill="lightgrey" stroke="black" cx="263" cy="-174.66" rx="47.38" ry="40.66"/>
<text text-anchor="middle" x="263" y="-186.11" font-family="Times New Roman,serif" font-size="14.00">out</text>
<text text-anchor="middle" x="263" y="-169.61" font-family="Times New Roman,serif" font-size="14.00">~</text>
<text text-anchor="middle" x="263" y="-153.11" font-family="Times New Roman,serif" font-size="14.00">Bernoulli</text>
</g>
<!-- p&#45;&gt;out -->
<g id="edge7" class="edge">
<title>p&#45;&gt;out</title>
<path fill="none" stroke="black" d="M263,-251.08C263,-243.6 263,-235.27 263,-226.95"/>
<polygon fill="black" stroke="black" points="266.5,-227.21 263,-217.21 259.5,-227.21 266.5,-227.21"/>
</g>
<!-- observed -->
<g id="node3" class="node">
<title>observed</title>
<path fill="lightgrey" stroke="black" d="M294.62,-98C294.62,-98 231.38,-98 231.38,-98 225.38,-98 219.38,-92 219.38,-86 219.38,-86 219.38,-52.5 219.38,-52.5 219.38,-46.5 225.38,-40.5 231.38,-40.5 231.38,-40.5 294.62,-40.5 294.62,-40.5 300.62,-40.5 306.62,-46.5 306.62,-52.5 306.62,-52.5 306.62,-86 306.62,-86 306.62,-92 300.62,-98 294.62,-98"/>
<text text-anchor="middle" x="263" y="-80.7" font-family="Times New Roman,serif" font-size="14.00">observed</text>
<text text-anchor="middle" x="263" y="-64.2" font-family="Times New Roman,serif" font-size="14.00">~</text>
<text text-anchor="middle" x="263" y="-47.7" font-family="Times New Roman,serif" font-size="14.00">MutableData</text>
</g>
<!-- out&#45;&gt;observed -->
<g id="edge1" class="edge">
<title>out&#45;&gt;observed</title>
<path fill="none" stroke="black" d="M263,-133.68C263,-125.83 263,-117.6 263,-109.76"/>
<polygon fill="black" stroke="black" points="266.5,-109.79 263,-99.79 259.5,-109.79 266.5,-109.79"/>
</g>
<!-- beta_1 -->
<g id="node5" class="node">
<title>beta_1</title>
<ellipse fill="none" stroke="black" cx="163" cy="-386.07" rx="41.01" ry="40.66"/>
<text text-anchor="middle" x="163" y="-397.52" font-family="Times New Roman,serif" font-size="14.00">beta_1</text>
<text text-anchor="middle" x="163" y="-381.02" font-family="Times New Roman,serif" font-size="14.00">~</text>
<text text-anchor="middle" x="163" y="-364.52" font-family="Times New Roman,serif" font-size="14.00">Normal</text>
</g>
<!-- beta_1&#45;&gt;p -->
<g id="edge5" class="edge">
<title>beta_1&#45;&gt;p</title>
<path fill="none" stroke="black" d="M187.78,-353.29C195.56,-343.85 204.37,-333.68 213,-324.82 215.54,-322.21 218.2,-319.59 220.93,-316.99"/>
<polygon fill="black" stroke="black" points="223.17,-319.69 228.13,-310.33 218.41,-314.55 223.17,-319.69"/>
</g>
<!-- beta_3 -->
<g id="node6" class="node">
<title>beta_3</title>
<ellipse fill="none" stroke="black" cx="263" cy="-386.07" rx="41.01" ry="40.66"/>
<text text-anchor="middle" x="263" y="-397.52" font-family="Times New Roman,serif" font-size="14.00">beta_3</text>
<text text-anchor="middle" x="263" y="-381.02" font-family="Times New Roman,serif" font-size="14.00">~</text>
<text text-anchor="middle" x="263" y="-364.52" font-family="Times New Roman,serif" font-size="14.00">Normal</text>
</g>
<!-- beta_3&#45;&gt;p -->
<g id="edge6" class="edge">
<title>beta_3&#45;&gt;p</title>
<path fill="none" stroke="black" d="M263,-345.16C263,-337.07 263,-328.58 263,-320.51"/>
<polygon fill="black" stroke="black" points="266.5,-320.61 263,-310.61 259.5,-320.61 266.5,-320.61"/>
</g>
<!-- beta_2 -->
<g id="node7" class="node">
<title>beta_2</title>
<ellipse fill="none" stroke="black" cx="363" cy="-386.07" rx="41.01" ry="40.66"/>
<text text-anchor="middle" x="363" y="-397.52" font-family="Times New Roman,serif" font-size="14.00">beta_2</text>
<text text-anchor="middle" x="363" y="-381.02" font-family="Times New Roman,serif" font-size="14.00">~</text>
<text text-anchor="middle" x="363" y="-364.52" font-family="Times New Roman,serif" font-size="14.00">Normal</text>
</g>
<!-- beta_2&#45;&gt;p -->
<g id="edge4" class="edge">
<title>beta_2&#45;&gt;p</title>
<path fill="none" stroke="black" d="M338.22,-353.29C330.44,-343.85 321.63,-333.68 313,-324.82 310.46,-322.21 307.8,-319.59 305.07,-316.99"/>
<polygon fill="black" stroke="black" points="307.59,-314.55 297.87,-310.33 302.83,-319.69 307.59,-314.55"/>
</g>
<!-- intercept -->
<g id="node8" class="node">
<title>intercept</title>
<ellipse fill="none" stroke="black" cx="467" cy="-386.07" rx="44.72" ry="40.66"/>
<text text-anchor="middle" x="467" y="-397.52" font-family="Times New Roman,serif" font-size="14.00">intercept</text>
<text text-anchor="middle" x="467" y="-381.02" font-family="Times New Roman,serif" font-size="14.00">~</text>
<text text-anchor="middle" x="467" y="-364.52" font-family="Times New Roman,serif" font-size="14.00">Normal</text>
</g>
<!-- intercept&#45;&gt;p -->
<g id="edge2" class="edge">
<title>intercept&#45;&gt;p</title>
<path fill="none" stroke="black" d="M442.92,-351.67C434.42,-341.84 424.17,-331.85 413,-324.82 384.71,-307 348.89,-296.2 319.35,-289.79"/>
<polygon fill="black" stroke="black" points="320.34,-286.42 309.84,-287.84 318.94,-293.28 320.34,-286.42"/>
</g>
</g>
</svg>
